<mxfile host="app.diagrams.net" modified="2024-04-26T08:20:16.154Z" agent="Mozilla/5.0 (X11; Linux x86_64; rv:125.0) Gecko/20100101 Firefox/125.0" etag="2g11E1kZ4E869XLtdsZ4" version="24.3.0" type="device">
  <diagram name="Страница — 1" id="DJXNApeKknpXTJq57TV3">
    <mxGraphModel dx="2514" dy="931" grid="1" gridSize="10" guides="1" tooltips="1" connect="1" arrows="1" fold="1" page="1" pageScale="1" pageWidth="827" pageHeight="1169" math="0" shadow="0">
      <root>
        <mxCell id="0" />
        <mxCell id="1" parent="0" />
        <mxCell id="4KNP0I6X8XAN-HdM6IuS-2" value="обменник валют" style="rounded=0;whiteSpace=wrap;html=1;" parent="1" vertex="1">
          <mxGeometry x="390" y="370" width="140" height="90" as="geometry" />
        </mxCell>
        <mxCell id="4KNP0I6X8XAN-HdM6IuS-4" value="" style="endArrow=classic;html=1;rounded=0;entryX=0;entryY=0.25;entryDx=0;entryDy=0;" parent="1" target="4KNP0I6X8XAN-HdM6IuS-2" edge="1">
          <mxGeometry width="50" height="50" relative="1" as="geometry">
            <mxPoint x="300" y="393" as="sourcePoint" />
            <mxPoint x="360" y="375" as="targetPoint" />
          </mxGeometry>
        </mxCell>
        <mxCell id="4KNP0I6X8XAN-HdM6IuS-5" value="" style="endArrow=classic;html=1;rounded=0;entryX=0;entryY=0.75;entryDx=0;entryDy=0;" parent="1" edge="1">
          <mxGeometry width="50" height="50" relative="1" as="geometry">
            <mxPoint x="-110" y="690" as="sourcePoint" />
            <mxPoint x="10" y="690.0000000000001" as="targetPoint" />
          </mxGeometry>
        </mxCell>
        <mxCell id="4KNP0I6X8XAN-HdM6IuS-7" value="Кошелек пользователя" style="text;html=1;align=center;verticalAlign=middle;whiteSpace=wrap;rounded=0;" parent="1" vertex="1">
          <mxGeometry x="310" y="370" width="60" height="10" as="geometry" />
        </mxCell>
        <mxCell id="4KNP0I6X8XAN-HdM6IuS-8" value="Выбранная валюта" style="text;html=1;align=center;verticalAlign=middle;whiteSpace=wrap;rounded=0;" parent="1" vertex="1">
          <mxGeometry x="310" y="440" width="60" height="30" as="geometry" />
        </mxCell>
        <mxCell id="4KNP0I6X8XAN-HdM6IuS-10" value="" style="endArrow=classic;html=1;rounded=0;entryX=0.75;entryY=0;entryDx=0;entryDy=0;" parent="1" target="4KNP0I6X8XAN-HdM6IuS-2" edge="1">
          <mxGeometry width="50" height="50" relative="1" as="geometry">
            <mxPoint x="495" y="270" as="sourcePoint" />
            <mxPoint x="490" y="370" as="targetPoint" />
          </mxGeometry>
        </mxCell>
        <mxCell id="4KNP0I6X8XAN-HdM6IuS-11" value="Админы" style="text;html=1;align=center;verticalAlign=middle;whiteSpace=wrap;rounded=0;rotation=-90;" parent="1" vertex="1">
          <mxGeometry x="450" y="480" width="60" height="30" as="geometry" />
        </mxCell>
        <mxCell id="4KNP0I6X8XAN-HdM6IuS-12" value="" style="endArrow=classic;html=1;rounded=0;entryX=0.25;entryY=0;entryDx=0;entryDy=0;" parent="1" target="4KNP0I6X8XAN-HdM6IuS-2" edge="1">
          <mxGeometry width="50" height="50" relative="1" as="geometry">
            <mxPoint x="425" y="260" as="sourcePoint" />
            <mxPoint x="419.71" y="230" as="targetPoint" />
          </mxGeometry>
        </mxCell>
        <mxCell id="4KNP0I6X8XAN-HdM6IuS-13" value="Данные курса валюты" style="text;html=1;align=center;verticalAlign=middle;whiteSpace=wrap;rounded=0;rotation=-90;" parent="1" vertex="1">
          <mxGeometry x="360" y="290" width="90" height="30" as="geometry" />
        </mxCell>
        <mxCell id="4KNP0I6X8XAN-HdM6IuS-14" value="" style="endArrow=classic;html=1;rounded=0;entryX=0.75;entryY=1;entryDx=0;entryDy=0;" parent="1" target="4KNP0I6X8XAN-HdM6IuS-2" edge="1">
          <mxGeometry width="50" height="50" relative="1" as="geometry">
            <mxPoint x="495" y="550" as="sourcePoint" />
            <mxPoint x="500" y="460" as="targetPoint" />
          </mxGeometry>
        </mxCell>
        <mxCell id="4KNP0I6X8XAN-HdM6IuS-15" value="Процесс оплаты" style="text;html=1;align=center;verticalAlign=middle;whiteSpace=wrap;rounded=0;rotation=-90;" parent="1" vertex="1">
          <mxGeometry x="430" y="300" width="90" height="30" as="geometry" />
        </mxCell>
        <mxCell id="4KNP0I6X8XAN-HdM6IuS-16" value="" style="endArrow=classic;html=1;rounded=0;exitX=1;exitY=0.5;exitDx=0;exitDy=0;" parent="1" source="4KNP0I6X8XAN-HdM6IuS-2" edge="1">
          <mxGeometry width="50" height="50" relative="1" as="geometry">
            <mxPoint x="590" y="430" as="sourcePoint" />
            <mxPoint x="660" y="415" as="targetPoint" />
          </mxGeometry>
        </mxCell>
        <mxCell id="4KNP0I6X8XAN-HdM6IuS-17" value="Обмен" style="text;html=1;align=center;verticalAlign=middle;whiteSpace=wrap;rounded=0;" parent="1" vertex="1">
          <mxGeometry x="560" y="390" width="60" height="30" as="geometry" />
        </mxCell>
        <mxCell id="Z98f51l4dhG0UdK--Epf-25" style="edgeStyle=orthogonalEdgeStyle;rounded=0;orthogonalLoop=1;jettySize=auto;html=1;entryX=0;entryY=0.5;entryDx=0;entryDy=0;" parent="1" source="4KNP0I6X8XAN-HdM6IuS-18" target="4KNP0I6X8XAN-HdM6IuS-19" edge="1">
          <mxGeometry relative="1" as="geometry" />
        </mxCell>
        <mxCell id="4KNP0I6X8XAN-HdM6IuS-18" value="Отправка заяки на обмен" style="rounded=0;whiteSpace=wrap;html=1;" parent="1" vertex="1">
          <mxGeometry x="10" y="630" width="140" height="70" as="geometry" />
        </mxCell>
        <mxCell id="Z98f51l4dhG0UdK--Epf-10" style="edgeStyle=orthogonalEdgeStyle;rounded=0;orthogonalLoop=1;jettySize=auto;html=1;entryX=0;entryY=0.5;entryDx=0;entryDy=0;" parent="1" source="4KNP0I6X8XAN-HdM6IuS-19" target="4KNP0I6X8XAN-HdM6IuS-20" edge="1">
          <mxGeometry relative="1" as="geometry" />
        </mxCell>
        <mxCell id="4KNP0I6X8XAN-HdM6IuS-19" value="Оплата заявки&amp;nbsp;" style="rounded=0;whiteSpace=wrap;html=1;" parent="1" vertex="1">
          <mxGeometry x="200" y="770" width="120" height="60" as="geometry" />
        </mxCell>
        <mxCell id="Z98f51l4dhG0UdK--Epf-12" style="edgeStyle=orthogonalEdgeStyle;rounded=0;orthogonalLoop=1;jettySize=auto;html=1;" parent="1" source="4KNP0I6X8XAN-HdM6IuS-20" target="4KNP0I6X8XAN-HdM6IuS-21" edge="1">
          <mxGeometry relative="1" as="geometry" />
        </mxCell>
        <mxCell id="4KNP0I6X8XAN-HdM6IuS-20" value="Конвертация валюты" style="rounded=0;whiteSpace=wrap;html=1;" parent="1" vertex="1">
          <mxGeometry x="450" y="840" width="120" height="60" as="geometry" />
        </mxCell>
        <mxCell id="4KNP0I6X8XAN-HdM6IuS-21" value="Отправка валюты на кошелек пользователя&amp;nbsp;" style="rounded=0;whiteSpace=wrap;html=1;" parent="1" vertex="1">
          <mxGeometry x="600" y="920" width="120" height="60" as="geometry" />
        </mxCell>
        <mxCell id="Z98f51l4dhG0UdK--Epf-1" value="" style="endArrow=classic;html=1;rounded=0;entryX=0;entryY=0.25;entryDx=0;entryDy=0;" parent="1" target="4KNP0I6X8XAN-HdM6IuS-18" edge="1">
          <mxGeometry width="50" height="50" relative="1" as="geometry">
            <mxPoint x="-110" y="648" as="sourcePoint" />
            <mxPoint x="10" y="640.5" as="targetPoint" />
          </mxGeometry>
        </mxCell>
        <mxCell id="Z98f51l4dhG0UdK--Epf-2" value="Выбранная валюта" style="text;html=1;align=center;verticalAlign=middle;whiteSpace=wrap;rounded=0;" parent="1" vertex="1">
          <mxGeometry x="-80" y="700" width="60" height="30" as="geometry" />
        </mxCell>
        <mxCell id="Z98f51l4dhG0UdK--Epf-4" value="" style="endArrow=classic;html=1;rounded=0;entryX=0;entryY=0.75;entryDx=0;entryDy=0;" parent="1" target="4KNP0I6X8XAN-HdM6IuS-2" edge="1">
          <mxGeometry width="50" height="50" relative="1" as="geometry">
            <mxPoint x="300" y="438" as="sourcePoint" />
            <mxPoint x="380" y="440" as="targetPoint" />
          </mxGeometry>
        </mxCell>
        <mxCell id="Z98f51l4dhG0UdK--Epf-5" value="Кошелек пользователя" style="text;html=1;align=center;verticalAlign=middle;whiteSpace=wrap;rounded=0;" parent="1" vertex="1">
          <mxGeometry x="-80" y="630" width="60" height="10" as="geometry" />
        </mxCell>
        <mxCell id="Z98f51l4dhG0UdK--Epf-6" value="" style="endArrow=classic;html=1;rounded=0;entryX=0.25;entryY=0;entryDx=0;entryDy=0;" parent="1" edge="1">
          <mxGeometry width="50" height="50" relative="1" as="geometry">
            <mxPoint x="45" y="520" as="sourcePoint" />
            <mxPoint x="45" y="630" as="targetPoint" />
            <Array as="points">
              <mxPoint x="45" y="580" />
            </Array>
          </mxGeometry>
        </mxCell>
        <mxCell id="Z98f51l4dhG0UdK--Epf-7" value="Данные курса валюты" style="text;html=1;align=center;verticalAlign=middle;whiteSpace=wrap;rounded=0;rotation=-90;" parent="1" vertex="1">
          <mxGeometry x="-20" y="550" width="90" height="30" as="geometry" />
        </mxCell>
        <mxCell id="Z98f51l4dhG0UdK--Epf-9" value="Обработка&amp;nbsp; заявки" style="text;html=1;align=center;verticalAlign=middle;whiteSpace=wrap;rounded=0;rotation=-90;" parent="1" vertex="1">
          <mxGeometry x="130" y="730" width="60" height="30" as="geometry" />
        </mxCell>
        <mxCell id="Z98f51l4dhG0UdK--Epf-11" value="Обработка оплаты" style="text;html=1;align=center;verticalAlign=middle;whiteSpace=wrap;rounded=0;" parent="1" vertex="1">
          <mxGeometry x="340" y="770" width="60" height="30" as="geometry" />
        </mxCell>
        <mxCell id="Z98f51l4dhG0UdK--Epf-13" value="" style="endArrow=classic;html=1;rounded=0;exitX=1;exitY=0.5;exitDx=0;exitDy=0;" parent="1" edge="1">
          <mxGeometry width="50" height="50" relative="1" as="geometry">
            <mxPoint x="720" y="955" as="sourcePoint" />
            <mxPoint x="850" y="955" as="targetPoint" />
          </mxGeometry>
        </mxCell>
        <mxCell id="Z98f51l4dhG0UdK--Epf-14" value="Обмен" style="text;html=1;align=center;verticalAlign=middle;whiteSpace=wrap;rounded=0;" parent="1" vertex="1">
          <mxGeometry x="750" y="930" width="60" height="30" as="geometry" />
        </mxCell>
        <mxCell id="Z98f51l4dhG0UdK--Epf-15" value="" style="endArrow=classic;html=1;rounded=0;entryX=0.25;entryY=1;entryDx=0;entryDy=0;" parent="1" target="4KNP0I6X8XAN-HdM6IuS-20" edge="1">
          <mxGeometry width="50" height="50" relative="1" as="geometry">
            <mxPoint x="480" y="1000" as="sourcePoint" />
            <mxPoint x="440" y="960" as="targetPoint" />
          </mxGeometry>
        </mxCell>
        <mxCell id="Z98f51l4dhG0UdK--Epf-16" value="Админы" style="text;html=1;align=center;verticalAlign=middle;whiteSpace=wrap;rounded=0;rotation=-90;" parent="1" vertex="1">
          <mxGeometry x="430" y="935" width="60" height="30" as="geometry" />
        </mxCell>
        <mxCell id="Z98f51l4dhG0UdK--Epf-19" value="" style="endArrow=classic;html=1;rounded=0;exitX=0.434;exitY=1.168;exitDx=0;exitDy=0;exitPerimeter=0;entryX=0.25;entryY=0;entryDx=0;entryDy=0;" parent="1" source="Z98f51l4dhG0UdK--Epf-7" target="4KNP0I6X8XAN-HdM6IuS-19" edge="1">
          <mxGeometry width="50" height="50" relative="1" as="geometry">
            <mxPoint x="120" y="580" as="sourcePoint" />
            <mxPoint x="220" y="760" as="targetPoint" />
            <Array as="points">
              <mxPoint x="230" y="570" />
            </Array>
          </mxGeometry>
        </mxCell>
        <mxCell id="Z98f51l4dhG0UdK--Epf-20" value="" style="endArrow=classic;html=1;rounded=0;entryX=0.5;entryY=0;entryDx=0;entryDy=0;" parent="1" target="4KNP0I6X8XAN-HdM6IuS-20" edge="1">
          <mxGeometry width="50" height="50" relative="1" as="geometry">
            <mxPoint x="230" y="640" as="sourcePoint" />
            <mxPoint x="650" y="760" as="targetPoint" />
            <Array as="points">
              <mxPoint x="510" y="640" />
            </Array>
          </mxGeometry>
        </mxCell>
        <mxCell id="Z98f51l4dhG0UdK--Epf-21" value="" style="endArrow=classic;html=1;rounded=0;entryX=-0.003;entryY=0.669;entryDx=0;entryDy=0;entryPerimeter=0;" parent="1" target="4KNP0I6X8XAN-HdM6IuS-21" edge="1">
          <mxGeometry width="50" height="50" relative="1" as="geometry">
            <mxPoint x="480" y="960" as="sourcePoint" />
            <mxPoint x="570" y="1000" as="targetPoint" />
          </mxGeometry>
        </mxCell>
        <mxCell id="Z98f51l4dhG0UdK--Epf-22" value="" style="endArrow=classic;html=1;rounded=0;entryX=0.5;entryY=0;entryDx=0;entryDy=0;" parent="1" target="4KNP0I6X8XAN-HdM6IuS-19" edge="1">
          <mxGeometry width="50" height="50" relative="1" as="geometry">
            <mxPoint x="260" y="680" as="sourcePoint" />
            <mxPoint x="250" y="730" as="targetPoint" />
          </mxGeometry>
        </mxCell>
        <mxCell id="Z98f51l4dhG0UdK--Epf-23" value="Банк" style="text;html=1;align=center;verticalAlign=middle;whiteSpace=wrap;rounded=0;rotation=-90;" parent="1" vertex="1">
          <mxGeometry x="220" y="710" width="60" height="30" as="geometry" />
        </mxCell>
        <mxCell id="Z98f51l4dhG0UdK--Epf-26" value="Отправка" style="text;html=1;align=center;verticalAlign=middle;whiteSpace=wrap;rounded=0;" parent="1" vertex="1">
          <mxGeometry x="600" y="840" width="60" height="30" as="geometry" />
        </mxCell>
        <mxCell id="p-h1PH7UdmYpS4QCG1Kr-1" value="" style="endArrow=classic;html=1;rounded=0;entryX=0.25;entryY=1;entryDx=0;entryDy=0;" edge="1" parent="1" target="4KNP0I6X8XAN-HdM6IuS-2">
          <mxGeometry width="50" height="50" relative="1" as="geometry">
            <mxPoint x="425" y="560" as="sourcePoint" />
            <mxPoint x="470" y="530" as="targetPoint" />
          </mxGeometry>
        </mxCell>
        <mxCell id="p-h1PH7UdmYpS4QCG1Kr-2" value="Сервис" style="text;html=1;align=center;verticalAlign=middle;whiteSpace=wrap;rounded=0;rotation=-90;" vertex="1" parent="1">
          <mxGeometry x="375" y="490" width="60" height="30" as="geometry" />
        </mxCell>
      </root>
    </mxGraphModel>
  </diagram>
</mxfile>
